<svg xmlns="http://www.w3.org/2000/svg" viewBox="0 0 156.08 52.18"><defs><style>.cls-1{font-size:48px;fill:#1d1d1b;font-family:MyriadPro-Regular, Myriad Pro;}.cls-2{fill:#90cfcc;}.cls-3{fill:none;}.cls-4{fill:#fff;}</style></defs><title>dicaso-text-logo</title><g id="Laag_2" data-name="Laag 2"><g id="Text_dicaso_logo" data-name="Text dicaso logo"><text class="cls-1" transform="translate(0 40.18)">dica<tspan class="cls-2" x="82.94" y="0">so</tspan><tspan class="cls-3" x="128.3" y="0">s</tspan></text><circle class="cls-2" cx="143.74" cy="23.51" r="3.34"/><circle class="cls-2" cx="143.74" cy="19.7" r="3.34"/><rect class="cls-2" x="140.41" y="19.7" width="6.68" height="3.82"/><circle class="cls-4" cx="144.62" cy="18.94" r="0.76"/><circle class="cls-2" cx="138.56" cy="28.7" r="3.34"/><circle class="cls-2" cx="134.75" cy="28.7" r="3.34"/><rect class="cls-2" x="133.32" y="26.79" width="6.68" height="3.82" transform="translate(107.96 165.35) rotate(-90)"/><circle class="cls-4" cx="133.99" cy="27.82" r="0.76"/><circle class="cls-2" cx="143.86" cy="33.88" r="3.34"/><circle class="cls-2" cx="143.86" cy="37.69" r="3.34"/><rect class="cls-2" x="140.52" y="33.88" width="6.68" height="3.82" transform="translate(287.71 71.57) rotate(-180)"/><circle class="cls-4" cx="142.98" cy="38.45" r="0.76"/><circle class="cls-2" cx="148.93" cy="28.58" r="3.34"/><circle class="cls-2" cx="152.74" cy="28.58" r="3.34"/><rect class="cls-2" x="147.5" y="26.68" width="6.68" height="3.82" transform="translate(179.42 -122.25) rotate(90)"/><circle class="cls-4" cx="153.5" cy="29.46" r="0.76"/><circle class="cls-4" cx="97.06" cy="18.94" r="0.76"/><circle class="cls-4" cx="134" cy="18.94" r="0.76"/></g></g></svg>